<svg xmlns="http://www.w3.org/2000/svg" xmlns:xlink="http://www.w3.org/1999/xlink" width="100%" zoomAndPan="magnify" viewBox="40 90 320 180" height="100%" preserveAspectRatio="xMidYMid meet" version="1.0"><defs><g/><clipPath id="8140aa83ad"><rect x="0" width="184" y="0" height="210"/></clipPath><clipPath id="4a56003055"><path d="M 184 186 L 198 186 L 198 227.277344 L 184 227.277344 Z M 184 186 " clip-rule="nonzero"/></clipPath><clipPath id="68c87a14df"><path d="M 167.71875 159 L 247 159 L 247 216 L 167.71875 216 Z M 167.71875 159 " clip-rule="nonzero"/></clipPath><clipPath id="fd312da5ff"><path d="M 208 126.027344 L 245 126.027344 L 245 173 L 208 173 Z M 208 126.027344 " clip-rule="nonzero"/></clipPath><clipPath id="81791f74b0"><path d="M 223 105 L 248 105 L 248 139 L 223 139 Z M 223 105 " clip-rule="nonzero"/></clipPath><clipPath id="a73c5b9366"><path d="M 251.503906 135.125 L 226.964844 138.347656 L 223.054688 108.605469 L 247.59375 105.378906 Z M 251.503906 135.125 " clip-rule="nonzero"/></clipPath><clipPath id="847f07a3b8"><path d="M 251.597656 135.570312 L 225.570312 138.992188 L 221.664062 109.246094 L 247.6875 105.824219 Z M 251.597656 135.570312 " clip-rule="nonzero"/></clipPath><clipPath id="2f879e8f42"><path d="M 251.597656 135.570312 L 192.109375 143.386719 L 188.199219 113.644531 L 247.6875 105.824219 Z M 251.597656 135.570312 " clip-rule="nonzero"/></clipPath><clipPath id="1537178281"><rect x="0" width="159" y="0" height="58"/></clipPath></defs><g transform="matrix(1, 0, 0, 1, 48, 97)"><g clip-path="url(#8140aa83ad)"><g fill="#000000" fill-opacity="1"><g transform="translate(0.637267, 150.36891)"><g><path d="M 5.671875 0 C 5.222656 0 5 -0.40625 5 -1.21875 C 5 -3.195312 5.945312 -5.085938 7.84375 -6.890625 C 10 -8.867188 11.414062 -10.285156 12.09375 -11.140625 C 12.769531 -12.003906 13.332031 -13.265625 13.78125 -14.921875 C 14.226562 -16.585938 14.8125 -19.539062 15.53125 -23.78125 L 25.671875 -85.25 L 25 -85.25 C 20.675781 -85.25 17.410156 -84.796875 15.203125 -83.890625 C 12.992188 -82.992188 11.328125 -82.070312 10.203125 -81.125 C 9.078125 -80.1875 8.378906 -79.71875 8.109375 -79.71875 C 7.472656 -79.71875 7.15625 -80.125 7.15625 -80.9375 C 7.15625 -81.195312 7.289062 -81.867188 7.5625 -82.953125 C 8.550781 -86.109375 10.957031 -88.695312 14.78125 -90.71875 C 18.613281 -92.75 23.910156 -93.765625 30.671875 -93.765625 C 33.910156 -93.765625 37.875 -93.539062 42.5625 -93.09375 C 43.726562 -93 45.660156 -92.863281 48.359375 -92.6875 C 51.066406 -92.507812 53.410156 -92.421875 55.390625 -92.421875 C 58.910156 -92.421875 61.679688 -92.617188 63.703125 -93.015625 C 65.734375 -93.421875 67.398438 -93.867188 68.703125 -94.359375 C 70.003906 -94.859375 70.835938 -95.109375 71.203125 -95.109375 C 71.566406 -95.109375 71.8125 -95.039062 71.9375 -94.90625 C 72.070312 -94.78125 72.140625 -94.535156 72.140625 -94.171875 C 72.140625 -93.085938 71.441406 -91.78125 70.046875 -90.25 C 68.648438 -88.71875 66.535156 -87.363281 63.703125 -86.1875 C 60.867188 -85.019531 57.332031 -84.4375 53.09375 -84.4375 C 51.476562 -84.4375 48.597656 -84.617188 44.453125 -84.984375 C 43.367188 -85.078125 42.0625 -85.164062 40.53125 -85.25 C 39 -85.34375 37.378906 -85.390625 35.671875 -85.390625 L 30 -50.53125 L 55.390625 -50.53125 C 56.203125 -50.53125 56.609375 -50.257812 56.609375 -49.71875 C 56.609375 -49.09375 56.019531 -48.015625 54.84375 -46.484375 C 53.675781 -44.953125 52.28125 -43.578125 50.65625 -42.359375 C 49.039062 -41.140625 47.46875 -40.53125 45.9375 -40.53125 C 45.488281 -40.53125 44.273438 -40.710938 42.296875 -41.078125 C 39.234375 -41.796875 36.257812 -42.15625 33.375 -42.15625 L 28.78125 -42.15625 L 24.1875 -14.859375 C 23.820312 -12.703125 22.832031 -10.8125 21.21875 -9.1875 L 21.21875 -9.046875 C 23.644531 -8.242188 25.441406 -7.84375 26.609375 -7.84375 C 27.785156 -7.84375 28.957031 -8.085938 30.125 -8.578125 C 31.300781 -9.078125 32.023438 -9.328125 32.296875 -9.328125 C 32.921875 -9.328125 33.234375 -9.054688 33.234375 -8.515625 C 33.234375 -7.796875 32.601562 -6.804688 31.34375 -5.546875 C 27.65625 -1.847656 24.726562 0 22.5625 0 C 21.84375 0 20.398438 -0.359375 18.234375 -1.078125 C 15.441406 -1.890625 13.550781 -2.296875 12.5625 -2.296875 C 11.125 -2.296875 9.679688 -1.910156 8.234375 -1.140625 C 6.796875 -0.378906 5.941406 0 5.671875 0 Z M 5.671875 0 "/></g></g></g><g fill="#000000" fill-opacity="1"><g transform="translate(68.45558, 150.36891)"><g><path d="M 61.609375 1.34375 C 59.535156 1.34375 57.441406 -0.207031 55.328125 -3.3125 C 53.210938 -6.414062 50.398438 -11.347656 46.890625 -18.109375 L 31.484375 -48.234375 L 25.9375 -14.859375 C 25.664062 -12.609375 24.859375 -10.71875 23.515625 -9.1875 L 23.515625 -9.046875 C 23.785156 -8.960938 24.414062 -8.738281 25.40625 -8.375 C 26.394531 -8.019531 27.296875 -7.84375 28.109375 -7.84375 C 29.367188 -7.84375 30.5625 -8.085938 31.6875 -8.578125 C 32.8125 -9.078125 33.507812 -9.328125 33.78125 -9.328125 C 34.40625 -9.328125 34.71875 -9.054688 34.71875 -8.515625 C 34.71875 -7.796875 34.085938 -6.804688 32.828125 -5.546875 C 29.410156 -1.847656 26.664062 0 24.59375 0 C 23.78125 0 22.289062 -0.359375 20.125 -1.078125 C 17.519531 -1.890625 15.675781 -2.296875 14.59375 -2.296875 C 13.15625 -2.296875 11.734375 -1.910156 10.328125 -1.140625 C 8.929688 -0.378906 8.101562 0 7.84375 0 C 7.382812 0 7.15625 -0.445312 7.15625 -1.34375 C 7.15625 -2.34375 7.378906 -3.242188 7.828125 -4.046875 C 8.285156 -4.859375 9.007812 -5.804688 10 -6.890625 C 12.15625 -8.867188 13.546875 -10.265625 14.171875 -11.078125 C 14.804688 -11.890625 15.347656 -13.0625 15.796875 -14.59375 C 16.253906 -16.125 16.796875 -19.003906 17.421875 -23.234375 L 27.296875 -85.125 C 26.660156 -85.125 25.535156 -85.210938 23.921875 -85.390625 C 23.285156 -85.484375 22.539062 -85.570312 21.6875 -85.65625 C 20.832031 -85.75 19.816406 -85.796875 18.640625 -85.796875 C 13.597656 -85.796875 9.769531 -84.128906 7.15625 -80.796875 C 6.976562 -80.523438 6.664062 -80.050781 6.21875 -79.375 C 5.769531 -78.695312 5.363281 -78.359375 5 -78.359375 C 4.550781 -78.359375 4.328125 -78.765625 4.328125 -79.578125 C 4.328125 -80.484375 4.460938 -81.25 4.734375 -81.875 C 5.628906 -85.65625 7.5625 -88.582031 10.53125 -90.65625 C 13.507812 -92.726562 17.160156 -93.765625 21.484375 -93.765625 L 25.9375 -93.625 C 28.457031 -93.445312 30.484375 -93.359375 32.015625 -93.359375 C 33.460938 -93.359375 34.992188 -93.445312 36.609375 -93.625 L 40 -93.765625 C 38.195312 -88.273438 36.890625 -82.828125 36.078125 -77.421875 L 32.5625 -54.3125 L 50.796875 -80.796875 C 57.378906 -90.253906 62.695312 -97.28125 66.75 -101.875 C 70.800781 -106.46875 75.164062 -109.890625 79.84375 -112.140625 C 83.363281 -113.847656 87.054688 -115.015625 90.921875 -115.640625 C 94.796875 -116.273438 100.066406 -116.863281 106.734375 -117.40625 C 107.910156 -117.5 109.171875 -117.722656 110.515625 -118.078125 C 111.503906 -118.441406 112.09375 -118.625 112.28125 -118.625 C 112.726562 -118.625 112.953125 -118.351562 112.953125 -117.8125 C 112.953125 -116.457031 112.273438 -115.195312 110.921875 -114.03125 C 109.566406 -112.863281 107.453125 -112.050781 104.578125 -111.59375 C 101.421875 -111.238281 99.4375 -111.015625 98.625 -110.921875 C 95.289062 -110.648438 92.585938 -110.265625 90.515625 -109.765625 C 88.453125 -109.273438 86.113281 -108.21875 83.5 -106.59375 C 80.519531 -104.707031 77.023438 -101.421875 73.015625 -96.734375 C 69.015625 -92.054688 64.039062 -85.390625 58.09375 -76.734375 L 41.078125 -51.875 L 58.09375 -18.921875 C 59.894531 -15.398438 61.269531 -13.03125 62.21875 -11.8125 C 63.164062 -10.601562 64.222656 -10 65.390625 -10 C 66.472656 -10 67.710938 -10.582031 69.109375 -11.75 C 70.503906 -12.925781 71.742188 -14.320312 72.828125 -15.9375 C 73.273438 -16.570312 73.722656 -17.113281 74.171875 -17.5625 C 74.617188 -18.007812 75.023438 -18.234375 75.390625 -18.234375 C 76.023438 -18.234375 76.34375 -17.738281 76.34375 -16.75 C 76.34375 -15.132812 75.507812 -12.863281 73.84375 -9.9375 C 72.175781 -7.007812 70.191406 -4.394531 67.890625 -2.09375 C 65.597656 0.195312 63.503906 1.34375 61.609375 1.34375 Z M 61.609375 1.34375 "/></g></g></g></g></g><g clip-path="url(#4a56003055)"><path fill="#af4c0f" d="M 197.699219 227.292969 C 197.699219 227.292969 200.792969 203.464844 184.871094 186.167969 C 184.871094 186.167969 196.613281 206.355469 191.230469 225.832031 Z M 197.699219 227.292969 " fill-opacity="1" fill-rule="evenodd"/></g><g clip-path="url(#68c87a14df)"><path fill="#000000" d="M 185.074219 189.746094 L 185.816406 215.808594 L 167.71875 212.257812 C 167.71875 212.257812 170.582031 201.890625 170.808594 193.699219 C 171.039062 185.507812 172.414062 175.253906 188.050781 169.46875 C 203.6875 163.683594 207.011719 159.960938 207.011719 159.960938 C 207.011719 159.960938 207.011719 173.59375 226.714844 175.199219 C 226.714844 175.199219 242.636719 175.941406 246.875 159.90625 C 246.875 159.90625 248.367188 176.230469 226.257812 180.351562 C 226.257812 180.351562 214.285156 181.957031 207.296875 176.171875 C 200.308594 170.386719 195.15625 164.601562 182.496094 173.535156 C 182.496094 173.535156 174.9375 177.71875 173.847656 188.371094 C 173.847656 188.371094 173.789062 196.5625 173.617188 202.117188 C 173.445312 207.671875 178.144531 211.796875 183.242188 212.199219 Z M 185.074219 189.746094 " fill-opacity="1" fill-rule="evenodd"/></g><g clip-path="url(#fd312da5ff)"><path fill="#af4c0f" d="M 208.558594 159.558594 C 211.355469 176.886719 242.203125 176.886719 245 159.558594 C 242.707031 159.015625 239.726562 156.722656 237.1875 150.996094 C 235.535156 147.273438 231.636719 146.152344 229.109375 145.824219 C 229.097656 144.914062 229.070312 143.472656 228.988281 142.214844 C 228.921875 141.105469 228.792969 140.113281 228.574219 139.625 C 228.082031 138.527344 227.15625 138.046875 226.085938 137.492188 C 224.753906 136.800781 223.011719 135.898438 223.59375 132.386719 C 223.78125 131.246094 224.511719 130.339844 225.457031 129.820312 C 226.019531 129.515625 226.652344 129.34375 227.289062 129.339844 C 227.90625 129.335938 228.539062 129.492188 229.113281 129.839844 C 230.210938 130.5 231.140625 131.867188 231.539062 134.148438 C 231.695312 135.046875 232.550781 135.644531 233.445312 135.488281 C 234.34375 135.332031 234.945312 134.476562 234.789062 133.582031 C 234.199219 130.242188 232.667969 128.132812 230.816406 127.019531 C 229.703125 126.347656 228.480469 126.046875 227.277344 126.054688 C 226.085938 126.058594 224.914062 126.375 223.886719 126.933594 C 222.09375 127.914062 220.707031 129.648438 220.34375 131.859375 C 219.378906 137.71875 222.324219 139.246094 224.578125 140.417969 C 225.097656 140.6875 225.546875 140.921875 225.574219 140.976562 C 225.609375 141.058594 225.65625 141.652344 225.703125 142.410156 C 225.769531 143.484375 225.796875 144.808594 225.808594 145.703125 C 223.625 145.800781 218.363281 146.507812 216.371094 150.996094 C 213.832031 156.722656 210.851562 159.015625 208.558594 159.558594 Z M 214.714844 162.6875 L 226.777344 156.015625 L 238.84375 162.6875 C 234.871094 165.019531 218.6875 165.019531 214.714844 162.6875 Z M 214.714844 162.6875 " fill-opacity="1" fill-rule="evenodd"/></g><g clip-path="url(#81791f74b0)"><g clip-path="url(#a73c5b9366)"><g clip-path="url(#847f07a3b8)"><g clip-path="url(#2f879e8f42)"><path fill="#000000" d="M 247.714844 105.898438 C 243.828125 115.679688 236.550781 124.039062 227.210938 129.121094 C 216.761719 134.808594 204.203125 136.003906 192.808594 132.691406 C 192.894531 132.714844 191.421875 138.054688 191.585938 138.097656 C 202.976562 141.410156 215.535156 140.214844 225.988281 134.53125 C 235.328125 129.449219 242.605469 121.089844 246.492188 111.304688 C 247.167969 109.601562 247.042969 107.59375 247.714844 105.898438 Z M 247.714844 105.898438 " fill-opacity="1" fill-rule="nonzero"/></g></g></g></g><g transform="matrix(1, 0, 0, 1, 198, 179)"><g clip-path="url(#1537178281)"><g fill="#000000" fill-opacity="1"><g transform="translate(0.892198, 45.371584)"><g><path d="M 9.828125 0 L 8.78125 -26.046875 L 0.625 -24.984375 L 0.625 -30.953125 L 24.875 -28.71875 L 24.875 -28.171875 L 15.984375 -26.984375 L 14.921875 0 Z M 9.828125 0 "/></g></g></g><g fill="#000000" fill-opacity="1"><g transform="translate(25.681869, 45.371584)"><g><path d="M 27.140625 0.515625 L 11 -13.859375 L 11.046875 -14.421875 C 12.585938 -14.734375 13.976562 -15.285156 15.21875 -16.078125 C 16.457031 -16.878906 17.5 -17.796875 18.34375 -18.828125 C 19.195312 -19.859375 19.796875 -20.878906 20.140625 -21.890625 C 20.367188 -22.578125 20.484375 -23.21875 20.484375 -23.8125 C 20.484375 -24.832031 20.128906 -25.664062 19.421875 -26.3125 C 18.722656 -26.96875 17.640625 -27.296875 16.171875 -27.296875 C 14.367188 -27.296875 12.476562 -27.050781 10.5 -26.5625 L 9.90625 0 L 4.890625 0 L 3.453125 -30.546875 L 10.578125 -30.546875 L 10.53125 -28.40625 C 11.757812 -29.082031 13.003906 -29.609375 14.265625 -29.984375 C 15.535156 -30.359375 16.757812 -30.546875 17.9375 -30.546875 C 20.132812 -30.546875 21.882812 -30.1875 23.1875 -29.46875 C 24.488281 -28.757812 25.429688 -27.859375 26.015625 -26.765625 C 26.609375 -25.679688 26.90625 -24.566406 26.90625 -23.421875 C 26.90625 -22.640625 26.789062 -21.910156 26.5625 -21.234375 C 26.195312 -20.109375 25.5625 -19.09375 24.65625 -18.1875 C 23.757812 -17.289062 22.726562 -16.539062 21.5625 -15.9375 C 20.40625 -15.34375 19.265625 -14.898438 18.140625 -14.609375 L 27.65625 0.546875 Z M 27.140625 0.515625 "/></g></g></g><g fill="#000000" fill-opacity="1"><g transform="translate(54.583572, 45.371584)"><g><path d="M 4.890625 0.390625 L 3.453125 -30.546875 L 10.578125 -30.546875 L 10.5 -27.578125 L 24.59375 -30.953125 L 24.59375 -24.59375 L 10.453125 -25.96875 L 10.21875 -16.0625 L 22.609375 -18.953125 L 22.609375 -12.734375 L 10.1875 -14.5 L 9.953125 -5.046875 L 25.390625 -3.40625 L 25.390625 -3.015625 Z M 4.890625 0.390625 "/></g></g></g><g fill="#000000" fill-opacity="1"><g transform="translate(81.566332, 45.371584)"><g><path d="M 26.28125 0.515625 L 9.984375 -22.875 L 6.5 0.515625 L 5.875 0.515625 L 3.375 -30.546875 L 9.796875 -30.546875 L 23.1875 -14.34375 L 27.34375 -30.953125 L 28.09375 -30.953125 L 26.59375 0.515625 Z M 26.28125 0.515625 "/></g></g></g><g fill="#000000" fill-opacity="1"><g transform="translate(113.170231, 45.371584)"><g><path d="M 3.453125 -30.546875 L 10.578125 -30.546875 L 10.5 -26.953125 C 11.625 -28.128906 12.875 -29.019531 14.25 -29.625 C 15.632812 -30.238281 17.0625 -30.546875 18.53125 -30.546875 C 20.09375 -30.546875 21.53125 -30.1875 22.84375 -29.46875 C 24.164062 -28.757812 25.3125 -27.769531 26.28125 -26.5 C 27.25 -25.226562 27.992188 -23.769531 28.515625 -22.125 C 29.035156 -20.488281 29.296875 -18.742188 29.296875 -16.890625 C 29.296875 -14.984375 29.007812 -13.113281 28.4375 -11.28125 C 27.238281 -7.4375 24.71875 -4.507812 20.875 -2.5 C 17.039062 -0.488281 11.710938 0.515625 4.890625 0.515625 Z M 9.953125 -1.6875 C 13.765625 -2.9375 16.632812 -4.410156 18.5625 -6.109375 C 20.5 -7.804688 21.703125 -9.453125 22.171875 -11.046875 C 22.585938 -12.484375 22.796875 -14.035156 22.796875 -15.703125 C 22.796875 -17.453125 22.570312 -19.125 22.125 -20.71875 C 21.6875 -22.3125 21.066406 -23.628906 20.265625 -24.671875 C 19.472656 -25.722656 18.566406 -26.3125 17.546875 -26.4375 C 16.992188 -26.519531 16.457031 -26.5625 15.9375 -26.5625 C 15.03125 -26.5625 14.117188 -26.445312 13.203125 -26.21875 C 12.285156 -26 11.367188 -25.640625 10.453125 -25.140625 Z M 9.953125 -1.6875 "/></g></g></g><g fill="#000000" fill-opacity="1"><g transform="translate(144.699872, 45.371584)"><g/></g></g></g></g><g fill="#000000" fill-opacity="1"><g transform="translate(203.734415, 244.641166)"><g><path d="M 5.53125 -6.90625 L 5.53125 -5.75 L 3.546875 -5.75 L 3.546875 0 L 2.1875 0 L 2.1875 -5.75 L 0.1875 -5.75 L 0.1875 -6.90625 Z M 5.53125 -6.90625 "/></g></g></g><g fill="#000000" fill-opacity="1"><g transform="translate(212.041543, 244.641166)"><g><path d="M 0.890625 0 L 0.890625 -6.90625 L 3.671875 -6.90625 C 4.378906 -6.90625 4.914062 -6.738281 5.28125 -6.40625 C 5.644531 -6.082031 5.828125 -5.628906 5.828125 -5.046875 C 5.828125 -4.628906 5.71875 -4.285156 5.5 -4.015625 C 5.289062 -3.753906 4.976562 -3.550781 4.5625 -3.40625 L 4.5625 -3.3125 C 4.78125 -3.21875 4.957031 -3.078125 5.09375 -2.890625 C 5.226562 -2.703125 5.351562 -2.425781 5.46875 -2.0625 L 6.15625 0 L 4.75 0 L 4.078125 -2.0625 C 4.003906 -2.269531 3.925781 -2.429688 3.84375 -2.546875 C 3.757812 -2.660156 3.648438 -2.742188 3.515625 -2.796875 C 3.378906 -2.847656 3.207031 -2.875 3 -2.875 L 2.265625 -2.875 L 2.265625 0 Z M 3.5 -3.953125 C 4.164062 -3.953125 4.5 -4.265625 4.5 -4.890625 C 4.5 -5.515625 4.164062 -5.828125 3.5 -5.828125 L 2.265625 -5.828125 L 2.265625 -3.953125 Z M 3.5 -3.953125 "/></g></g></g><g fill="#000000" fill-opacity="1"><g transform="translate(221.079491, 244.641166)"><g><path d="M 2.265625 -3.03125 L 2.265625 -1.140625 L 5.5625 -1.140625 L 5.5625 0 L 0.890625 0 L 0.890625 -6.90625 L 5.484375 -6.90625 L 5.484375 -5.765625 L 2.265625 -5.765625 L 2.265625 -4.140625 L 5.078125 -4.140625 L 5.078125 -3.03125 Z M 2.265625 -3.03125 "/></g></g></g><g fill="#000000" fill-opacity="1"><g transform="translate(229.598793, 244.641166)"><g><path d="M 2.21875 0 L 0.890625 0 L 0.890625 -6.90625 L 2.453125 -6.90625 L 5.234375 -2.453125 L 5.359375 -2.46875 L 5.359375 -6.90625 L 6.671875 -6.90625 L 6.671875 0 L 5.265625 0 L 2.34375 -4.75 L 2.21875 -4.734375 Z M 2.21875 0 "/></g></g></g><g fill="#000000" fill-opacity="1"><g transform="translate(239.749473, 244.641166)"><g><path d="M 3.375 -6.90625 C 4.5 -6.90625 5.351562 -6.613281 5.9375 -6.03125 C 6.53125 -5.457031 6.828125 -4.597656 6.828125 -3.453125 C 6.828125 -2.316406 6.53125 -1.457031 5.9375 -0.875 C 5.351562 -0.289062 4.5 0 3.375 0 L 0.890625 0 L 0.890625 -6.90625 Z M 3.296875 -1.140625 C 4.015625 -1.140625 4.546875 -1.320312 4.890625 -1.6875 C 5.242188 -2.050781 5.421875 -2.640625 5.421875 -3.453125 C 5.421875 -4.265625 5.242188 -4.847656 4.890625 -5.203125 C 4.546875 -5.566406 4.015625 -5.75 3.296875 -5.75 L 2.265625 -5.75 L 2.265625 -1.140625 Z M 3.296875 -1.140625 "/></g></g></g><g fill="#000000" fill-opacity="1"><g transform="translate(249.711554, 244.641166)"><g><path d="M 2.265625 0 L 0.890625 0 L 0.890625 -6.90625 L 2.265625 -6.90625 Z M 2.265625 0 "/></g></g></g><g fill="#000000" fill-opacity="1"><g transform="translate(255.463171, 244.641166)"><g><path d="M 2.21875 0 L 0.890625 0 L 0.890625 -6.90625 L 2.453125 -6.90625 L 5.234375 -2.453125 L 5.359375 -2.46875 L 5.359375 -6.90625 L 6.671875 -6.90625 L 6.671875 0 L 5.265625 0 L 2.34375 -4.75 L 2.21875 -4.734375 Z M 2.21875 0 "/></g></g></g><g fill="#000000" fill-opacity="1"><g transform="translate(265.613851, 244.641166)"><g><path d="M 3.359375 0.09375 C 2.773438 0.09375 2.273438 -0.0351562 1.859375 -0.296875 C 1.441406 -0.554688 1.117188 -0.953125 0.890625 -1.484375 C 0.660156 -2.015625 0.546875 -2.671875 0.546875 -3.453125 C 0.546875 -4.242188 0.679688 -4.898438 0.953125 -5.421875 C 1.222656 -5.953125 1.601562 -6.347656 2.09375 -6.609375 C 2.582031 -6.867188 3.144531 -7 3.78125 -7 C 4.445312 -7 5.007812 -6.875 5.46875 -6.625 C 5.9375 -6.382812 6.265625 -6.023438 6.453125 -5.546875 L 5.46875 -4.9375 L 5.34375 -4.9375 C 5.207031 -5.25 5.007812 -5.472656 4.75 -5.609375 C 4.488281 -5.753906 4.164062 -5.828125 3.78125 -5.828125 C 3.1875 -5.828125 2.734375 -5.640625 2.421875 -5.265625 C 2.109375 -4.890625 1.953125 -4.285156 1.953125 -3.453125 C 1.953125 -2.617188 2.097656 -2.007812 2.390625 -1.625 C 2.679688 -1.25 3.117188 -1.0625 3.703125 -1.0625 C 4.191406 -1.0625 4.554688 -1.171875 4.796875 -1.390625 C 5.035156 -1.617188 5.15625 -1.957031 5.15625 -2.40625 L 5.15625 -2.703125 L 3.515625 -2.703125 L 3.515625 -3.8125 L 6.5 -3.8125 L 6.5 0 L 5.203125 0 L 5.203125 -0.921875 L 5.109375 -0.9375 C 4.960938 -0.601562 4.742188 -0.347656 4.453125 -0.171875 C 4.171875 0.00390625 3.804688 0.09375 3.359375 0.09375 Z M 3.359375 0.09375 "/></g></g></g><g fill="#000000" fill-opacity="1"><g transform="translate(275.396764, 244.641166)"><g/></g></g><g fill="#000000" fill-opacity="1"><g transform="translate(280.266682, 244.641166)"><g><path d="M 3.765625 0.09375 C 3.128906 0.09375 2.566406 -0.0351562 2.078125 -0.296875 C 1.597656 -0.554688 1.222656 -0.953125 0.953125 -1.484375 C 0.679688 -2.015625 0.546875 -2.671875 0.546875 -3.453125 C 0.546875 -4.234375 0.679688 -4.882812 0.953125 -5.40625 C 1.222656 -5.9375 1.597656 -6.332031 2.078125 -6.59375 C 2.566406 -6.863281 3.128906 -7 3.765625 -7 C 4.429688 -7 4.992188 -6.867188 5.453125 -6.609375 C 5.921875 -6.347656 6.253906 -5.953125 6.453125 -5.421875 L 5.46875 -4.8125 L 5.34375 -4.828125 C 5.195312 -5.179688 4.992188 -5.4375 4.734375 -5.59375 C 4.484375 -5.75 4.160156 -5.828125 3.765625 -5.828125 C 3.191406 -5.828125 2.742188 -5.632812 2.421875 -5.25 C 2.109375 -4.875 1.953125 -4.273438 1.953125 -3.453125 C 1.953125 -2.628906 2.109375 -2.023438 2.421875 -1.640625 C 2.742188 -1.265625 3.191406 -1.078125 3.765625 -1.078125 C 4.671875 -1.078125 5.222656 -1.515625 5.421875 -2.390625 L 5.546875 -2.390625 L 6.546875 -1.859375 C 6.359375 -1.210938 6.035156 -0.722656 5.578125 -0.390625 C 5.117188 -0.0664062 4.515625 0.09375 3.765625 0.09375 Z M 3.765625 0.09375 "/></g></g></g><g fill="#000000" fill-opacity="1"><g transform="translate(289.620533, 244.641166)"><g><path d="M 2.265625 -6.90625 L 2.265625 -1.140625 L 5.359375 -1.140625 L 5.359375 0 L 0.890625 0 L 0.890625 -6.90625 Z M 2.265625 -6.90625 "/></g></g></g><g fill="#000000" fill-opacity="1"><g transform="translate(297.611541, 244.641166)"><g><path d="M 3.765625 0.09375 C 3.128906 0.09375 2.566406 -0.03125 2.078125 -0.28125 C 1.597656 -0.539062 1.222656 -0.9375 0.953125 -1.46875 C 0.679688 -2 0.546875 -2.660156 0.546875 -3.453125 C 0.546875 -4.242188 0.679688 -4.90625 0.953125 -5.4375 C 1.222656 -5.96875 1.597656 -6.359375 2.078125 -6.609375 C 2.566406 -6.867188 3.128906 -7 3.765625 -7 C 4.398438 -7 4.957031 -6.867188 5.4375 -6.609375 C 5.914062 -6.359375 6.289062 -5.96875 6.5625 -5.4375 C 6.832031 -4.90625 6.96875 -4.242188 6.96875 -3.453125 C 6.96875 -2.660156 6.832031 -2 6.5625 -1.46875 C 6.289062 -0.9375 5.914062 -0.539062 5.4375 -0.28125 C 4.957031 -0.03125 4.398438 0.09375 3.765625 0.09375 Z M 3.765625 -1.09375 C 4.347656 -1.09375 4.789062 -1.28125 5.09375 -1.65625 C 5.40625 -2.03125 5.5625 -2.628906 5.5625 -3.453125 C 5.5625 -4.273438 5.40625 -4.875 5.09375 -5.25 C 4.789062 -5.632812 4.347656 -5.828125 3.765625 -5.828125 C 3.171875 -5.828125 2.71875 -5.632812 2.40625 -5.25 C 2.101562 -4.875 1.953125 -4.273438 1.953125 -3.453125 C 1.953125 -2.628906 2.101562 -2.03125 2.40625 -1.65625 C 2.71875 -1.28125 3.171875 -1.09375 3.765625 -1.09375 Z M 3.765625 -1.09375 "/></g></g></g><g fill="#000000" fill-opacity="1"><g transform="translate(307.549853, 244.641166)"><g><path d="M 5.53125 -6.90625 L 5.53125 -5.75 L 3.546875 -5.75 L 3.546875 0 L 2.1875 0 L 2.1875 -5.75 L 0.1875 -5.75 L 0.1875 -6.90625 Z M 5.53125 -6.90625 "/></g></g></g><g fill="#000000" fill-opacity="1"><g transform="translate(315.856981, 244.641166)"><g><path d="M 5.359375 -4.3125 L 5.359375 -6.90625 L 6.71875 -6.90625 L 6.71875 0 L 5.359375 0 L 5.359375 -3.140625 L 2.265625 -3.140625 L 2.265625 0 L 0.890625 0 L 0.890625 -6.90625 L 2.265625 -6.90625 L 2.265625 -4.3125 Z M 5.359375 -4.3125 "/></g></g></g><g fill="#000000" fill-opacity="1"><g transform="translate(326.054811, 244.641166)"><g><path d="M 2.265625 -3.03125 L 2.265625 -1.140625 L 5.5625 -1.140625 L 5.5625 0 L 0.890625 0 L 0.890625 -6.90625 L 5.484375 -6.90625 L 5.484375 -5.765625 L 2.265625 -5.765625 L 2.265625 -4.140625 L 5.078125 -4.140625 L 5.078125 -3.03125 Z M 2.265625 -3.03125 "/></g></g></g><g fill="#000000" fill-opacity="1"><g transform="translate(334.574113, 244.641166)"><g><path d="M 3.0625 0.09375 C 2.582031 0.09375 2.15625 0.0351562 1.78125 -0.078125 C 1.40625 -0.191406 1.09375 -0.34375 0.84375 -0.53125 C 0.601562 -0.726562 0.414062 -0.941406 0.28125 -1.171875 L 1.03125 -2.09375 L 1.140625 -2.09375 C 1.347656 -1.78125 1.613281 -1.53125 1.9375 -1.34375 C 2.257812 -1.164062 2.632812 -1.078125 3.0625 -1.078125 C 3.425781 -1.078125 3.703125 -1.15625 3.890625 -1.3125 C 4.078125 -1.46875 4.171875 -1.679688 4.171875 -1.953125 C 4.171875 -2.117188 4.140625 -2.253906 4.078125 -2.359375 C 4.015625 -2.472656 3.910156 -2.566406 3.765625 -2.640625 C 3.628906 -2.722656 3.445312 -2.789062 3.21875 -2.84375 L 2.328125 -3.046875 C 1.703125 -3.191406 1.238281 -3.425781 0.9375 -3.75 C 0.632812 -4.082031 0.484375 -4.507812 0.484375 -5.03125 C 0.484375 -5.425781 0.582031 -5.769531 0.78125 -6.0625 C 0.976562 -6.363281 1.257812 -6.59375 1.625 -6.75 C 2 -6.914062 2.445312 -7 2.96875 -7 C 3.5 -7 3.953125 -6.925781 4.328125 -6.78125 C 4.710938 -6.644531 5.035156 -6.4375 5.296875 -6.15625 L 4.625 -5.21875 L 4.5 -5.21875 C 4.3125 -5.425781 4.085938 -5.582031 3.828125 -5.6875 C 3.578125 -5.789062 3.289062 -5.84375 2.96875 -5.84375 C 2.59375 -5.84375 2.304688 -5.773438 2.109375 -5.640625 C 1.921875 -5.503906 1.828125 -5.320312 1.828125 -5.09375 C 1.828125 -4.875 1.894531 -4.695312 2.03125 -4.5625 C 2.164062 -4.4375 2.398438 -4.335938 2.734375 -4.265625 L 3.640625 -4.078125 C 4.316406 -3.941406 4.804688 -3.703125 5.109375 -3.359375 C 5.410156 -3.023438 5.5625 -2.582031 5.5625 -2.03125 C 5.5625 -1.601562 5.46875 -1.226562 5.28125 -0.90625 C 5.09375 -0.59375 4.8125 -0.347656 4.4375 -0.171875 C 4.0625 0.00390625 3.601562 0.09375 3.0625 0.09375 Z M 3.0625 0.09375 "/></g></g></g></svg>